<?xml version="1.0" encoding="UTF-8" standalone="no"?>
<!-- Created with Inkscape (http://www.inkscape.org/) -->

<svg
   width="100mm"
   height="80mm"
   viewBox="0 0 100 80"
   version="1.1"
   id="svg948"
   inkscape:version="1.1.1 (3bf5ae0d25, 2021-09-20, custom)"
   sodipodi:docname="utramig-especial-logo.svg"
   xmlns:inkscape="http://www.inkscape.org/namespaces/inkscape"
   xmlns:sodipodi="http://sodipodi.sourceforge.net/DTD/sodipodi-0.dtd"
   xmlns="http://www.w3.org/2000/svg"
   xmlns:svg="http://www.w3.org/2000/svg">
  <sodipodi:namedview
     id="namedview950"
     pagecolor="#ffffff"
     bordercolor="#666666"
     borderopacity="1.0"
     inkscape:pageshadow="2"
     inkscape:pageopacity="0.0"
     inkscape:pagecheckerboard="true"
     inkscape:document-units="mm"
     showgrid="false"
     inkscape:zoom="0.74961453"
     inkscape:cx="262.80174"
     inkscape:cy="374.85933"
     inkscape:window-width="1306"
     inkscape:window-height="739"
     inkscape:window-x="60"
     inkscape:window-y="0"
     inkscape:window-maximized="1"
     inkscape:current-layer="layer1" />
  <defs
     id="defs945" />
  <g
     inkscape:label="Layer 1"
     inkscape:groupmode="layer"
     id="layer1">
    <g
       id="g1825"
       transform="translate(-23.608432,-62.604783)"
       style="fill:#a97115;fill-opacity:1;stroke:none;stroke-opacity:1">
      <path
         style="fill:#a97115;fill-opacity:1;stroke:none;stroke-width:1;stroke-opacity:1"
         d="m 118.19545,124.12419 c -0.0927,-0.14998 0.0135,-0.19434 0.24897,-0.10399 0.45837,0.1759 0.54224,0.36554 0.16165,0.36554 -0.13693,0 -0.32171,-0.1177 -0.41062,-0.26155 z m -47.257017,-10.3932 c -1.06235,-0.7097 -1.82408,-2.09544 -1.824654,-3.31941 -5.29e-4,-0.99109 0.289203,-1.62478 1.352674,-2.95917 1.54581,-1.93961 2.038594,-3.54576 2.232369,-7.27604 0.17032,-3.278729 0.151628,-3.473616 -0.399674,-4.167192 -1.609212,-2.024491 -4.278077,0.230603 -4.753449,4.016492 -0.130654,1.04052 -0.433157,2.19038 -0.672232,2.55526 -1.083815,1.65411 -3.662629,2.20928 -5.384868,1.15927 -1.127541,-0.68745 -2.009696,-2.58236 -1.757553,-3.775326 0.478956,-2.266067 1.878343,-3.238276 4.958622,-3.444955 1.355114,-0.09092 2.049372,-0.289367 2.837844,-0.811152 1.352365,-0.894953 1.956509,-1.820647 1.743115,-2.670877 -0.311619,-1.241589 -1.096931,-1.478944 -5.089539,-1.538281 -3.484805,-0.05179 -3.741949,-0.01922 -5.184184,0.656712 -0.834631,0.391163 -1.906194,1.006214 -2.38125,1.36678 -1.280015,0.971522 -2.546922,1.122719 -4.004596,0.477919 -3.19232,-1.412114 -3.047812,-5.815909 0.231944,-7.06846 1.478669,-0.564709 2.69661,-0.285709 4.261025,0.976098 2.103493,1.696606 3.575367,2.15929 7.296525,2.29366 2.829026,0.102155 3.483981,0.05139 4.040376,-0.313177 0.944853,-0.619092 1.104362,-1.550391 0.447561,-2.613117 -0.753383,-1.219 -2.311371,-2.016145 -4.470297,-2.287229 -1.006001,-0.126318 -2.094301,-0.392197 -2.418445,-0.590842 -1.516213,-0.929182 -2.132147,-3.493523 -1.249217,-5.200921 0.950606,-1.838269 3.701587,-2.494223 5.479441,-1.306539 1.207905,0.806934 1.82285,2.116237 1.830465,3.89733 0.01132,2.646405 1.49157,4.7625 3.331474,4.7625 1.505937,0 1.777325,-0.750697 1.801691,-4.983688 0.02273,-3.947163 -0.183573,-4.729456 -1.910379,-7.244471 -1.463212,-2.131098 -1.343414,-3.982138 0.354184,-5.472649 2.130187,-1.870327 5.324944,-0.979786 6.220569,1.733987 0.442759,1.341573 0.135109,2.417753 -1.200396,4.199061 -1.63208,2.176884 -1.990368,3.381615 -2.17378,7.309255 -0.15616,3.343987 -0.155726,3.347262 0.531908,4.034896 0.874935,0.874936 1.774444,0.87341 2.818114,-0.0048 1.142492,-0.961342 1.575139,-1.917459 1.846852,-4.081381 0.128561,-1.023874 0.429356,-2.160123 0.66843,-2.524998 1.029997,-1.57197 3.24924,-2.129811 5.05813,-1.271437 1.242576,0.589641 1.962613,1.853452 1.961396,3.442645 -0.0019,2.434962 -1.53189,3.799788 -4.27233,3.81104 -1.524207,0.0063 -3.391787,0.705458 -4.391785,1.644232 -0.750567,0.704614 -0.795488,2.118531 -0.08973,2.824289 0.632385,0.632386 3.226379,0.943199 6.213334,0.744482 2.366029,-0.157408 3.529454,-0.564292 5.511001,-1.927355 2.203064,-1.515442 4.613079,-1.198698 5.972281,0.784926 1.470178,2.145584 0.109826,5.380939 -2.465647,5.8641 -1.34057,0.251495 -2.267257,-0.0622 -3.982254,-1.34801 -2.11868,-1.588475 -3.275777,-1.929883 -7.252224,-2.139809 -3.391418,-0.179041 -3.391418,-0.179041 -4.079036,0.508578 -0.843883,0.843883 -0.864148,1.426117 -0.09017,2.590775 0.762029,1.146677 2.610975,2.089647 4.097322,2.089647 2.484308,0 4.058208,1.308404 4.242157,3.526562 0.215662,2.60062 -1.21875,4.1435 -3.853942,4.14537 -1.256588,7.9e-4 -1.509779,-0.10206 -2.482413,-1.00933 -1.04515,-0.9749 -1.089631,-1.08452 -1.269294,-3.12794 -0.283313,-3.222292 -1.59118,-5.122162 -3.526089,-5.122162 -1.266113,0 -1.597549,0.795891 -1.725705,4.144016 -0.146023,3.814916 0.190199,5.414466 1.573551,7.486056 0.580708,0.86962 1.166088,1.96556 1.30084,2.43542 0.902885,3.14817 -3.100856,5.96261 -5.86006,4.11934 z"
         id="path1638" />
      <path
         style="fill:#a97115;fill-opacity:1;stroke:none;stroke-width:1;stroke-opacity:1"
         d="m 116.65018,137.17394 c -0.097,-0.097 -0.17639,-0.88481 -0.17639,-1.75065 0,-1.5086 -0.0248,-1.56688 -0.59531,-1.39732 -2.4487,0.7278 -4.37588,0.33419 -6.19237,-1.26475 -3.9491,-3.47613 -3.09763,-9.73919 1.6283,-11.97717 1.76571,-0.83616 4.49284,-0.87343 6.1242,-0.0837 1.8988,0.91919 2.92882,3.28852 1.42962,3.28852 -0.50089,0 -0.68964,-0.18767 -0.86348,-0.85852 -0.29692,-1.14586 -1.28048,-1.74545 -2.90108,-1.76854 -1.16606,-0.0166 -1.40768,0.0811 -2.09082,0.8453 -0.77239,0.86407 -0.77239,0.86407 -0.77239,5.03435 0,3.49661 0.0728,4.27597 0.45087,4.82448 0.99195,1.43923 1.93655,1.67089 3.09558,0.7592 0.67706,-0.53258 0.70412,-0.64888 0.63099,-2.71198 -0.0764,-2.15554 -0.0764,-2.15554 -1.00245,-2.28783 -0.58796,-0.084 -0.92604,-0.27718 -0.92604,-0.52917 0,-0.54215 5.39277,-0.73811 5.729,-0.20818 0.24851,0.39167 0.30544,9.21342 0.0635,9.84383 -0.12265,0.31963 -0.54986,0.41852 -1.80799,0.41852 -0.90606,0 -1.72676,-0.0794 -1.82377,-0.17639 z m -86.629615,-3.74313 c -2.977929,-1.06609 -3.240528,-1.68904 -3.240528,-7.68737 0,-2.6147 0.07227,-4.94234 0.160599,-5.17252 0.126249,-0.329 0.575731,-0.41851 2.101535,-0.41851 1.940936,0 1.940936,0 2.022213,5.39684 0.07325,4.86373 0.130934,5.45165 0.583962,5.95164 1.216107,1.34219 4.080313,1.18685 5.321842,-0.28862 0.651224,-0.77393 0.657765,-0.83281 0.657765,-5.92079 0,-5.13907 0,-5.13907 0.656418,-5.13907 0.910974,0 0.980313,0.45906 0.88251,5.84271 -0.07694,4.2349 -0.130382,4.67375 -0.659559,5.41558 -1.488263,2.08634 -5.58071,3.06046 -8.486757,2.02011 z m 24.462357,0.31338 c -0.102421,-0.10242 -0.186219,-3.21175 -0.186219,-6.90962 0,-6.72339 0,-6.72339 4.960937,-6.63663 4.215476,0.0737 5.095613,0.16018 5.857187,0.57537 2.28804,1.24739 2.839873,3.14289 1.349012,4.63376 -0.438594,0.43859 -1.063672,0.87904 -1.389062,0.97877 -1.32021,0.40465 -1.30692,0.54645 0.363482,3.8787 0.97029,1.93561 1.501145,3.28017 1.353396,3.42792 -0.133707,0.13371 -1.12337,0.20775 -2.199248,0.16455 -1.956147,-0.0786 -1.956147,-0.0786 -3.442285,-2.81111 -0.817374,-1.50291 -1.592447,-2.75307 -1.722381,-2.77813 -0.129937,-0.0251 -0.295778,1.20459 -0.368539,2.73256 -0.132291,2.77812 -0.132291,2.77812 -2.261176,2.8541 -1.17089,0.0418 -2.212687,-0.008 -2.315104,-0.11024 z m 6.690026,-7.63715 c 1.67,-0.86359 2.049113,-2.45849 0.907026,-3.81578 -0.670581,-0.79694 -2.0369,-1.37734 -2.690042,-1.14271 -0.234292,0.0842 -0.33073,0.88207 -0.33073,2.73633 0,2.61753 0,2.61753 0.674598,2.61753 0.371028,0 1.018646,-0.17792 1.439148,-0.39537 z m 7.265291,7.46662 c -0.247562,-0.64514 4.069358,-12.14949 4.812835,-12.82594 0.777719,-0.7076 2.334373,-0.79798 3.207758,-0.18623 0.846283,0.59276 4.80596,12.76412 4.266578,13.11472 -0.201988,0.13129 -1.1371,0.208 -2.078027,0.17047 -1.846194,-0.0736 -1.780215,-0.0205 -2.714636,-2.18489 -0.339098,-0.78544 -0.366873,-0.79455 -2.652776,-0.87017 -2.31009,-0.0764 -2.31009,-0.0764 -3.039909,1.45521 -0.716745,1.50419 -1.509693,2.0881 -1.801823,1.32683 z m 6.60445,-4.3869 c 0.221663,-0.35865 -1.216959,-5.09299 -1.517195,-4.99291 -0.339151,0.11305 -2.055942,4.69978 -1.87107,4.99891 0.179531,0.29049 3.20834,0.28512 3.388265,-0.006 z m 8.140218,4.40019 c -0.383759,-0.38376 -0.439195,-10.6822 -0.06283,-11.67212 0.412041,-1.08375 1.340725,-1.76242 2.411666,-1.76242 1.685928,0 2.183548,0.65769 3.407071,4.50302 0.604142,1.89873 1.204892,3.38644 1.334995,3.30603 0.130104,-0.0804 0.474533,-0.78225 0.7654,-1.55966 2.109457,-5.63803 2.16866,-5.75451 3.129105,-6.1558 0.731187,-0.30551 1.106602,-0.32252 1.832325,-0.083 1.650201,0.54461 1.706038,0.80403 1.62665,7.55748 -0.07121,6.05798 -0.07121,6.05798 -2.055588,6.05798 -1.984375,0 -1.984375,0 -2.057238,-4.16718 -0.06055,-3.46295 -0.138801,-4.1672 -0.463021,-4.1672 -0.214588,0 -0.390157,0.0315 -0.390157,0.07 0,0.41491 -2.436709,7.74786 -2.666646,8.02492 -0.328975,0.39639 -1.753213,0.4974 -2.281181,0.16179 -0.174692,-0.11104 -0.923693,-2.07375 -1.664449,-4.36157 -0.740759,-2.28783 -1.461035,-4.15968 -1.600613,-4.15968 -0.150979,0 -0.253778,1.64808 -0.253778,4.06865 0,3.0531 -0.08742,4.1412 -0.350252,4.35933 -0.255773,0.21227 -0.434203,0.20674 -0.661459,-0.0205 z m 17.443493,-0.0398 c -0.21222,-0.25571 -0.28071,-2.27732 -0.23083,-6.81303 0.0709,-6.44942 0.0709,-6.44942 2.29722,-6.52697 1.39288,-0.0485 2.29252,0.0296 2.40321,0.20871 0.2298,0.37182 0.12136,12.82102 -0.115,13.20347 -0.27181,0.43978 -3.98073,0.37831 -4.3546,-0.0722 z M 44.371994,133.3258 c -0.06956,-0.1876 -0.156908,-2.96047 -0.194111,-6.16193 -0.06764,-5.82084 -0.06764,-5.82084 -1.919722,-5.95313 -1.41111,-0.10079 -1.852083,-0.22678 -1.852083,-0.52917 0,-0.34151 0.867246,-0.39687 6.217708,-0.39687 5.350462,0 6.217708,0.0554 6.217708,0.39687 0,0.29851 -0.426273,0.42967 -1.719791,0.52917 -1.719792,0.13229 -1.719792,0.13229 -1.852084,6.21771 -0.132291,6.08542 -0.132291,6.08542 -2.451721,6.16193 -1.707843,0.0563 -2.352781,-0.0134 -2.445904,-0.26458 z m 0.505542,-15.39589 c -1.171927,-1.17193 -1.213133,-2.26716 -0.126185,-3.3541 0.65106,-0.65106 0.985216,-0.7734 2.112491,-0.7734 1.090989,0 1.491838,0.13647 2.163477,0.73659 1.833623,1.63833 0.574278,4.29049 -2.037291,4.29049 -1.026608,0 -1.351082,-0.13817 -2.112492,-0.89958 z"
         id="path1636" />
    </g>
  </g>
</svg>
